<svg width="14" height="14" viewBox="0 0 14 14" xmlns="http://www.w3.org/2000/svg">
    <g fill="#FFF" fill-rule="nonzero" opacity=".3">
        <path d="m6.31 8.06-.08.07L4.8 9.59a1.24 1.24 0 0 0-.23.32c-.223.44-.147.97.19 1.33.242.265.593.401.95.37.3-.018.584-.15.79-.37l1.85-1.86 1.72-1.72a1.15 1.15 0 0 0 .31-.87 1 1 0 0 0-.21-.58c-.14-.17-.29-.32-.44-.48L6.34 2.34a1.1 1.1 0 0 0-1-.28 1.12 1.12 0 0 0-.7.41 1.14 1.14 0 0 0-.27.67 1.19 1.19 0 0 0 .39 1l1.5 1.5.08.08H1.1c-.282.05-.537.2-.72.42a1.15 1.15 0 0 0-.24 1c.057.245.194.463.39.62.214.191.493.295.78.29h5v.01zM11.51 7v3.93a.59.59 0 0 1-.26.5.67.67 0 0 1-.41.11H9.57a1.18 1.18 0 0 0-.66.42 1.17 1.17 0 0 0 .21 1.67c.196.156.44.24.69.24h1a6 6 0 0 0 .64 0 2.32 2.32 0 0 0 .73-.24 3 3 0 0 0 .62-.42 3.14 3.14 0 0 0 .71-.86 2.88 2.88 0 0 0 .35-1.42v-8.2a2.51 2.51 0 0 0-.26-.9 3.05 3.05 0 0 0-.88-1.07 2.88 2.88 0 0 0-1.78-.62H9.62a1.15 1.15 0 0 0-.65.37 1.12 1.12 0 0 0-.31.73 1.1 1.1 0 0 0 .18.67c.207.354.59.569 1 .56h1.18a.62.62 0 0 1 .55.56v3.94l-.06.03z"/>
        <path d="M6.31 8.06h-5a1.14 1.14 0 0 1-.78-.29 1.12 1.12 0 0 1-.39-.62 1.15 1.15 0 0 1 .24-1 1.21 1.21 0 0 1 .72-.45h5.24l-.08-.08-1.5-1.5a1.19 1.19 0 0 1-.39-1 1.14 1.14 0 0 1 .27-.67 1.12 1.12 0 0 1 .7-.41 1.1 1.1 0 0 1 1 .28L9.73 5.7c.15.15.3.31.44.48a1 1 0 0 1 .21.58 1.15 1.15 0 0 1-.31.87L8.35 9.38l-1.84 1.86a1.18 1.18 0 0 1-.79.37 1.15 1.15 0 0 1-.95-.37 1.17 1.17 0 0 1-.19-1.33 1.24 1.24 0 0 1 .23-.32l1.43-1.44.08-.07-.01-.02z"/>
        <path d="M11.51 7V3.06a.62.62 0 0 0-.51-.57H9.82a1.13 1.13 0 0 1-1-.56A1.1 1.1 0 0 1 9 .51a1.15 1.15 0 0 1 .65-.37h1.32a2.88 2.88 0 0 1 1.78.62c.357.28.647.634.85 1.04.142.281.23.586.26.9v8.2a2.88 2.88 0 0 1-.35 1.42 3.14 3.14 0 0 1-.71.86 3 3 0 0 1-.62.42 2.32 2.32 0 0 1-.73.24 5.94 5.94 0 0 1-.64 0h-1a1.1 1.1 0 0 1-.69-.24 1.17 1.17 0 0 1-.21-1.6 1.18 1.18 0 0 1 .66-.42h1.27a.67.67 0 0 0 .41-.11.59.59 0 0 0 .26-.5V7z"/>
    </g>
</svg>
