<svg width="28" height="16" viewBox="0 0 28 16" xmlns="http://www.w3.org/2000/svg">
    <path d="m27 14.47-.09-.17a13.55 13.55 0 0 0-2.6-3c-.58-.553-.947-.927-1.1-1.12A1 1 0 0 1 23 9a10.27 10.27 0 0 1 1.22-1.78l.88-1.16c1.567-2.087 2.233-3.42 2-4l-.1-.12a.8.8 0 0 0-.4-.22 2.14 2.14 0 0 0-.87 0h-3.92a.51.51 0 0 0-.27 0h-.3a.6.6 0 0 0-.15.14.93.93 0 0 0-.14.24 22.22 22.22 0 0 1-1.46 3.06 25.23 25.23 0 0 1-.93 1.46 7 7 0 0 1-.71.91 4.94 4.94 0 0 1-.52.47c-.153.12-.27.17-.35.15l-.23-.05a.9.9 0 0 1-.31-.33 1.49 1.49 0 0 1-.16-.53V2.6a3.14 3.14 0 0 0 0-.62 2.12 2.12 0 0 0-.14-.44.73.73 0 0 0-.28-.33 1.57 1.57 0 0 0-.46-.18A9 9 0 0 0 13.57 1a8.93 8.93 0 0 0-3.25.33 1.83 1.83 0 0 0-.52.41c-.167.2-.19.31-.07.33.45.032.869.245 1.16.59l.08.16a2.6 2.6 0 0 1 .19.63c.067.33.107.664.12 1a10.59 10.59 0 0 1 0 1.7c-.047.473-.09.84-.13 1.1a2.21 2.21 0 0 1-.18.64 2.69 2.69 0 0 1-.16.3l-.07.07a1 1 0 0 1-.37.07.86.86 0 0 1-.46-.19 3.27 3.27 0 0 1-.56-.52 7 7 0 0 1-.66-.93 15 15 0 0 1-.76-1.42l-.22-.39c-.133-.253-.32-.623-.56-1.11-.24-.487-.447-.963-.62-1.43a.9.9 0 0 0-.33-.44h-.07a.93.93 0 0 0-.22-.16 1.44 1.44 0 0 0-.31-.09l-3.73.03a1 1 0 0 0-.77.26L1 2a.44.44 0 0 0 0 .22c.005.127.032.252.08.37a43.55 43.55 0 0 0 1.78 3.72c.64 1.187 1.193 2.143 1.66 2.87.473.727.967 1.413 1.48 2.06s.847 1.06 1 1.24l.37.41.34.33a8.06 8.06 0 0 0 1 .78c.451.324.918.624 1.4.9a7.6 7.6 0 0 0 1.79.72 6.19 6.19 0 0 0 2 .22h1.57a1.08 1.08 0 0 0 .72-.3l.05-.07a.9.9 0 0 0 .1-.25 1.38 1.38 0 0 0 0-.37 4.48 4.48 0 0 1 .09-1.05 2.77 2.77 0 0 1 .23-.71 1.74 1.74 0 0 1 .29-.4 1.19 1.19 0 0 1 .23-.2h.11a.86.86 0 0 1 .77.21c.31.227.588.493.83.79.26.313.57.663.93 1.05a6.41 6.41 0 0 0 1 .87l.27.16c.224.127.462.228.71.3.243.087.505.111.76.07l3.48-.05a1.58 1.58 0 0 0 .8-.17.68.68 0 0 0 .34-.37 1.06 1.06 0 0 0 0-.46 1.71 1.71 0 0 0-.1-.36l-.08-.06z" fill="#FFF" fill-rule="nonzero"/>
</svg>
